# xmcd CD database file
#
# Track frame offsets:
#	150
#	30284
#	70804
#	99298
#	128644
#	153710
#	175265
#	193397
#	229544
#
# Disc length: 3533 seconds
#
# Revision: 0
# Processed by: cddbd v1.5.1PL2 Copyright (c) Steve Scherf et al.
# Submitted via: CDex 1.51
#
DISCID=6d0dcb09
DTITLE=Eugene Maslov - Where The Light Comes From
DYEAR=2005
DGENRE=Jazz
TTITLE0=Nardis
TTITLE1=Hawaiian Evening
TTITLE2=Twin-Waltz
TTITLE3=Sketch
TTITLE4=Winter Morning
TTITLE5=Last Ray
TTITLE6=Mother's Prayer
TTITLE7=Boom
TTITLE8=Oh Those Good Old Days
EXTD=YEAR: 2005
EXTT0=
EXTT1=
EXTT2=
EXTT3=
EXTT4=
EXTT5=
EXTT6=
EXTT7=
EXTT8=
PLAYORDER=
